<svg id="Capa_1" enable-background="new 0 0 510.006 510.006" height="512" viewBox="0 0 510.006 510.006" width="512" xmlns="http://www.w3.org/2000/svg"><g><path d="m439.896 359.787c20.4-16.12 33.515-41.071 33.515-69.03 0-48.493-39.452-87.945-87.946-87.945-48.493 0-87.945 39.452-87.945 87.945 0 27.958 13.115 52.91 33.514 69.03-24.732 10.667-44.886 28.364-57.109 50.125-13.115-31.259-40.096-56.648-74.336-70.344 24.801-18.044 40.956-47.285 40.956-80.233 0-54.682-44.487-99.168-99.168-99.168s-99.168 44.486-99.168 99.168c0 32.948 16.155 62.189 40.956 80.233-48.929 19.572-83.04 63.021-83.04 113.355v57.084h509.76v-51.473c-.002-43.339-28.589-80.891-69.989-98.747zm-367.689-100.452c0-38.14 31.029-69.168 69.168-69.168s69.168 31.028 69.168 69.168-31.029 69.169-69.168 69.169-69.168-31.03-69.168-69.169zm180.421 220.671h-222.505v-27.084c0-52.063 49.908-94.419 111.253-94.419s111.252 42.356 111.252 94.419zm74.891-189.249c0-31.951 25.994-57.945 57.945-57.945 31.952 0 57.946 25.994 57.946 57.945 0 31.952-25.994 57.946-57.946 57.946-31.951.001-57.945-25.993-57.945-57.946zm152.364 189.249h-188.838v-21.473c0-44.019 42.356-79.83 94.419-79.83s94.419 35.812 94.419 79.83z"/><path d="m255.132 170.702 71.947-71.606c22.633-22.634 22.633-59.461 0-82.093-19.912-19.912-50.102-21.999-72.1-8.021-21.991-13.973-52.183-11.898-72.1 8.021-22.606 22.605-22.783 59.309.048 82.141zm-51.04-132.487c10.951-10.952 28.712-10.955 39.667 0l11.22 11.22 11.22-11.22c10.949-10.951 28.712-10.955 39.667 0 10.936 10.936 10.936 28.73.025 39.642l-50.804 50.563-50.995-50.538c-10.96-10.958-10.962-28.705 0-39.667z"/></g></svg>