<?xml version="1.0" encoding="iso-8859-1"?>
<!-- Generator: Adobe Illustrator 19.0.0, SVG Export Plug-In . SVG Version: 6.00 Build 0)  -->
<svg version="1.1" id="Capa_1" xmlns="http://www.w3.org/2000/svg" xmlns:xlink="http://www.w3.org/1999/xlink" x="0px" y="0px"
	 viewBox="0 0 512 512" style="enable-background:new 0 0 512 512;" xml:space="preserve">
<g>
	<g>
		<path d="M436.812,75.188C388.327,26.702,324.113,0,256,0S123.673,26.702,75.188,75.188C26.702,123.673,0,187.887,0,256
			s26.702,132.327,75.188,180.812C123.673,485.298,187.887,512,256,512s132.327-26.702,180.812-75.188
			C485.298,388.327,512,324.113,512,256S485.298,123.673,436.812,75.188z M256,482C131.383,482,30,380.617,30,256S131.383,30,256,30
			s226,101.383,226,226S380.617,482,256,482z"/>
	</g>
</g>
<g>
	<g>
		<path d="M346,151c-24.813,0-45,20.187-45,45s20.187,45,45,45s45-20.187,45-45S370.813,151,346,151z M346,211
			c-8.271,0-15-6.729-15-15s6.729-15,15-15s15,6.729,15,15S354.271,211,346,211z"/>
	</g>
</g>
<g>
	<g>
		<path d="M166,151c-24.813,0-45,20.187-45,45s20.187,45,45,45s45-20.187,45-45S190.813,151,166,151z M166,211
			c-8.271,0-15-6.729-15-15s6.729-15,15-15s15,6.729,15,15S174.271,211,166,211z"/>
	</g>
</g>
<g>
	<g>
		<rect x="151" y="361" width="210" height="30"/>
	</g>
</g>
<g>
</g>
<g>
</g>
<g>
</g>
<g>
</g>
<g>
</g>
<g>
</g>
<g>
</g>
<g>
</g>
<g>
</g>
<g>
</g>
<g>
</g>
<g>
</g>
<g>
</g>
<g>
</g>
<g>
</g>
</svg>
